<?xml version="1.0" encoding="UTF-8" standalone="no"?>
<!-- Created with Inkscape (http://www.inkscape.org/) -->

<svg
   xmlns:dc="http://purl.org/dc/elements/1.1/"
   xmlns:cc="http://creativecommons.org/ns#"
   xmlns:rdf="http://www.w3.org/1999/02/22-rdf-syntax-ns#"
   xmlns:svg="http://www.w3.org/2000/svg"
   xmlns="http://www.w3.org/2000/svg"
   xmlns:sodipodi="http://sodipodi.sourceforge.net/DTD/sodipodi-0.dtd"
   xmlns:inkscape="http://www.inkscape.org/namespaces/inkscape"
   width="210mm"
   height="297mm"
   viewBox="0 0 210 297"
   version="1.1"
   id="svg8"
   inkscape:version="0.92.3 (2405546, 2018-03-11)"
   sodipodi:docname="cover-title.svg"
   inkscape:export-filename="/home/jam/Kuweta/latex2epub/photos/cover-title.png"
   inkscape:export-xdpi="150.00539"
   inkscape:export-ydpi="150.00539">
  <defs
     id="defs2" />
  <sodipodi:namedview
     id="base"
     pagecolor="#ffffff"
     bordercolor="#666666"
     borderopacity="1.0"
     inkscape:pageopacity="0.0"
     inkscape:pageshadow="2"
     inkscape:zoom="0.49497475"
     inkscape:cx="-256.71258"
     inkscape:cy="169.2093"
     inkscape:document-units="mm"
     inkscape:current-layer="layer1"
     showgrid="false"
     inkscape:window-width="2560"
     inkscape:window-height="1391"
     inkscape:window-x="0"
     inkscape:window-y="25"
     inkscape:window-maximized="1" />
  <metadata
     id="metadata5">
    <rdf:RDF>
      <cc:Work
         rdf:about="">
        <dc:format>image/svg+xml</dc:format>
        <dc:type
           rdf:resource="http://purl.org/dc/dcmitype/StillImage" />
        <dc:title></dc:title>
      </cc:Work>
    </rdf:RDF>
  </metadata>
  <g
     inkscape:label="Layer 1"
     inkscape:groupmode="layer"
     id="layer1">
    <rect
       style="opacity:0.50499998;fill:#008000;fill-opacity:1;stroke:#000000;stroke-width:0.1;stroke-linecap:round;stroke-miterlimit:4;stroke-dasharray:none;stroke-dashoffset:0;stroke-opacity:0"
       id="rect817"
       width="210.60568"
       height="298.03024"
       x="-0.30284119"
       y="-0.51512146"
       ry="0" />
    <path
       sodipodi:type="spiral"
       style="fill:none;fill-rule:evenodd;stroke:#0000ff;stroke-width:2;stroke-miterlimit:4;stroke-dasharray:none;stroke-opacity:1"
       id="path827-6"
       sodipodi:cx="88.034538"
       sodipodi:cy="42.946552"
       sodipodi:expansion="1"
       sodipodi:revolution="3"
       sodipodi:radius="40.639034"
       sodipodi:argument="-17.742407"
       sodipodi:t0="0"
       d="m 88.034538,42.946552 c 0.911232,1.822464 -2.007076,2.127461 -3.029055,1.514527 -2.769501,-1.661016 -1.973327,-5.652195 3e-6,-7.572637 3.529824,-3.435221 9.265316,-2.063663 12.116218,1.514531 4.183816,5.251144 2.173952,12.933698 -3.029061,16.659801 -6.934797,4.966309 -16.622511,2.29378 -21.203381,-4.54359 -5.764558,-8.604133 -2.418754,-20.321265 6.058118,-25.746964 10.266629,-6.571248 24.02566,-2.546745 30.29055,7.572648 7.38295,11.925355 2.67663,27.733568 -9.08718,34.834127 C 86.568959,75.376871 68.706918,69.986793 60.77304,56.577289 51.758064,41.340558 57.833196,21.421547 72.889275,12.655999 89.77992,2.8223787 111.75813,9.5834685 121.35415,26.286763 c 10.65339,18.543823 3.20569,42.58287 -15.1453,53.008453" />
    <g
       id="g875">
      <rect
         y="42.55941"
         x="11.722931"
         height="33.141422"
         width="186.55414"
         id="rect868"
         style="opacity:0.50499998;fill:#008000;fill-opacity:1;stroke:#0000ff;stroke-width:2;stroke-linecap:round;stroke-miterlimit:4;stroke-dasharray:none;stroke-dashoffset:0;stroke-opacity:1" />
      <flowRoot
         transform="matrix(0.26458333,0,0,0.26458333,-22.706932,4.8108515)"
         style="font-style:normal;font-variant:normal;font-weight:normal;font-stretch:normal;font-size:85.33333588px;line-height:1.25;font-family:'Andale Mono';-inkscape-font-specification:'Andale Mono';font-variant-ligatures:normal;font-variant-caps:normal;font-variant-numeric:normal;font-feature-settings:normal;text-align:center;letter-spacing:0px;word-spacing:0px;writing-mode:lr-tb;text-anchor:middle;fill:#000000;fill-opacity:1;stroke:none"
         id="flowRoot819"
         xml:space="preserve"><flowRegion
           style="font-style:normal;font-variant:normal;font-weight:normal;font-stretch:normal;font-size:85.33333588px;font-family:'Andale Mono';-inkscape-font-specification:'Andale Mono';text-align:center;text-anchor:middle"
           id="flowRegion821"><rect
             style="font-style:normal;font-variant:normal;font-weight:normal;font-stretch:normal;font-size:85.33333588px;font-family:'Andale Mono';-inkscape-font-specification:'Andale Mono';text-align:center;text-anchor:middle"
             y="150.75293"
             x="153.54318"
             height="290.92395"
             width="664.68042"
             id="rect823" /></flowRegion><flowPara
           style="font-style:normal;font-variant:normal;font-weight:normal;font-stretch:normal;font-size:96px;font-family:'Andale Mono';-inkscape-font-specification:'Andale Mono';text-align:center;text-anchor:middle;fill:#ffff00"
           id="flowPara825">A.K. Author</flowPara></flowRoot>    </g>
    <path
       sodipodi:type="spiral"
       style="fill:none;fill-rule:evenodd;stroke:#0000ff;stroke-width:2;stroke-miterlimit:4;stroke-dasharray:none;stroke-opacity:1"
       id="path827"
       sodipodi:cx="44.901279"
       sodipodi:cy="107.77318"
       sodipodi:expansion="1"
       sodipodi:revolution="3"
       sodipodi:radius="40.63903"
       sodipodi:argument="-17.742407"
       sodipodi:t0="0"
       d="m 44.901279,107.77318 c 0.911232,1.82246 -2.007075,2.12746 -3.029055,1.51452 -2.7695,-1.66101 -1.973327,-5.65219 3e-6,-7.57263 3.529824,-3.435222 9.265316,-2.063664 12.116218,1.51453 4.183812,5.25114 2.173951,12.9337 -3.029061,16.6598 -6.934797,4.96631 -16.62251,2.29378 -21.20338,-4.54359 C 23.991447,106.74168 27.33725,95.024546 35.814123,89.598848 46.08075,83.0276 59.839776,87.052103 66.104665,97.171495 73.487619,109.09685 68.781302,124.90506 57.017489,132.00562 43.4357,140.20349 25.573661,134.81342 17.639784,121.40391 8.6248088,106.16718 14.69994,86.248175 29.756018,77.482628 c 16.890643,-9.83362 38.86885,-3.072531 48.464867,13.630762 10.653397,18.54382 3.205695,42.58287 -15.145292,53.00845" />
    <path
       sodipodi:type="spiral"
       style="fill:none;fill-rule:evenodd;stroke:#0000ff;stroke-width:2;stroke-miterlimit:4;stroke-dasharray:none;stroke-opacity:1"
       id="path827-7"
       sodipodi:cx="160.73184"
       sodipodi:cy="255.15855"
       sodipodi:expansion="1"
       sodipodi:revolution="3"
       sodipodi:radius="40.639034"
       sodipodi:argument="-17.742407"
       sodipodi:t0="0"
       d="m 160.73184,255.15855 c 0.91123,1.82247 -2.00707,2.12747 -3.02905,1.51453 -2.7695,-1.66102 -1.97333,-5.65219 0,-7.57264 3.52982,-3.43522 9.26532,-2.06366 12.11622,1.51454 4.18381,5.25114 2.17395,12.93369 -3.02906,16.6598 -6.9348,4.9663 -16.62251,2.29378 -21.20338,-4.54359 -5.76456,-8.60414 -2.41876,-20.32127 6.05811,-25.74697 10.26663,-6.57125 24.02566,-2.54674 30.29055,7.57265 7.38295,11.92535 2.67664,27.73357 -9.08718,34.83413 -13.58179,8.19787 -31.44383,2.8078 -39.37771,-10.60171 -9.01497,-15.23673 -2.93984,-35.15574 12.11624,-43.92129 16.89064,-9.83362 38.86885,-3.07253 48.46487,13.63076 10.6534,18.54383 3.2057,42.58287 -15.14529,53.00846" />
    <path
       sodipodi:type="spiral"
       style="fill:none;fill-rule:evenodd;stroke:#0000ff;stroke-width:2;stroke-miterlimit:4;stroke-dasharray:none;stroke-opacity:1"
       id="path827-4"
       sodipodi:cx="35.11517"
       sodipodi:cy="198.49741"
       sodipodi:expansion="1"
       sodipodi:revolution="3"
       sodipodi:radius="40.639034"
       sodipodi:argument="-17.742407"
       sodipodi:t0="0"
       d="m 35.11517,198.49741 c 0.911231,1.82246 -2.007076,2.12746 -3.029056,1.51452 -2.769501,-1.66101 -1.973327,-5.65219 3e-6,-7.57263 3.529825,-3.43523 9.265317,-2.06367 12.116218,1.51453 4.183813,5.25114 2.173953,12.93369 -3.02906,16.6598 -6.934798,4.96631 -16.622512,2.29378 -21.203382,-4.54359 -5.764558,-8.60414 -2.418754,-20.32127 6.058119,-25.74697 10.266629,-6.57124 24.025655,-2.54674 30.290545,7.57265 7.382955,11.92536 2.676638,27.73357 -9.087177,34.83413 -13.58179,8.19787 -31.443831,2.8078 -39.3777083,-10.60171 -9.0149762,-15.23673 -2.939844,-35.15574 12.1162353,-43.92129 16.890645,-9.83362 38.868854,-3.07253 48.464871,13.63077 10.653398,18.54382 3.205696,42.58287 -15.145293,53.00845" />
    <path
       sodipodi:type="spiral"
       style="fill:none;fill-rule:evenodd;stroke:#0000ff;stroke-width:2;stroke-miterlimit:4;stroke-dasharray:none;stroke-opacity:1"
       id="path827-3"
       sodipodi:cx="160.19731"
       sodipodi:cy="99.607689"
       sodipodi:expansion="1"
       sodipodi:revolution="3"
       sodipodi:radius="40.639034"
       sodipodi:argument="-17.742407"
       sodipodi:t0="0"
       d="m 160.19731,99.607689 c 0.91123,1.822461 -2.00707,2.127461 -3.02905,1.514531 -2.7695,-1.66102 -1.97333,-5.652199 0,-7.572642 3.52982,-3.43522 9.26532,-2.063662 12.11622,1.514532 4.18381,5.25114 2.17395,12.9337 -3.02906,16.6598 -6.9348,4.96631 -16.62251,2.29378 -21.20339,-4.54359 -5.76455,-8.604133 -2.41875,-20.321264 6.05812,-25.746963 10.26663,-6.571248 24.02566,-2.546746 30.29055,7.572648 7.38295,11.925355 2.67664,27.733565 -9.08718,34.834125 -13.58179,8.19788 -31.44383,2.8078 -39.37771,-10.6017 -9.01497,-15.236735 -2.93984,-35.155746 12.11624,-43.921294 16.89064,-9.833621 38.86885,-3.072531 48.46487,13.630764 10.6534,18.54382 3.2057,42.58287 -15.14529,53.00845" />
    <path
       sodipodi:type="spiral"
       style="fill:none;fill-rule:evenodd;stroke:#0000ff;stroke-width:2;stroke-miterlimit:4;stroke-dasharray:none;stroke-opacity:1"
       id="path827-5"
       sodipodi:cx="120.10689"
       sodipodi:cy="179.25401"
       sodipodi:expansion="1"
       sodipodi:revolution="3"
       sodipodi:radius="40.639034"
       sodipodi:argument="-17.742407"
       sodipodi:t0="0"
       d="m 120.10689,179.25401 c 0.91123,1.82247 -2.00708,2.12746 -3.02906,1.51453 -2.7695,-1.66102 -1.97332,-5.6522 10e-6,-7.57264 3.52982,-3.43522 9.26531,-2.06366 12.11621,1.51453 4.18382,5.25115 2.17396,12.9337 -3.02906,16.6598 -6.93479,4.96631 -16.62251,2.29379 -21.20338,-4.54359 -5.764556,-8.60413 -2.41875,-20.32126 6.05812,-25.74696 10.26663,-6.57125 24.02566,-2.54674 30.29055,7.57265 7.38295,11.92535 2.67663,27.73357 -9.08718,34.83413 -13.58179,8.19787 -31.44383,2.80779 -39.37771,-10.60171 -9.014976,-15.23673 -2.939844,-35.15574 12.11623,-43.92129 16.89065,-9.83362 38.86886,-3.07253 48.46488,13.63076 10.65339,18.54383 3.20569,42.58287 -15.1453,53.00846" />
    <g
       id="g936"
       transform="translate(2.3684998)">
      <rect
         y="197.57573"
         x="9.3544312"
         height="55.592064"
         width="186.55414"
         id="rect868-5"
         style="opacity:0.50499998;fill:#008000;fill-opacity:1;stroke:#0000ff;stroke-width:2;stroke-linecap:round;stroke-miterlimit:4;stroke-dasharray:none;stroke-dashoffset:0;stroke-opacity:1" />
      <flowRoot
         transform="matrix(0.26458333,0,0,0.26458333,-26.743547,155.43501)"
         style="font-style:normal;font-variant:normal;font-weight:normal;font-stretch:normal;font-size:85.33333588px;line-height:1.25;font-family:'Andale Mono';-inkscape-font-specification:'Andale Mono';font-variant-ligatures:normal;font-variant-caps:normal;font-variant-numeric:normal;font-feature-settings:normal;text-align:center;letter-spacing:0px;word-spacing:0px;writing-mode:lr-tb;text-anchor:middle;fill:#000000;fill-opacity:1;stroke:none"
         id="flowRoot819-0"
         xml:space="preserve"><flowRegion
           style="font-style:normal;font-variant:normal;font-weight:normal;font-stretch:normal;font-size:85.33333588px;font-family:'Andale Mono';-inkscape-font-specification:'Andale Mono';text-align:center;text-anchor:middle"
           id="flowRegion821-5"><rect
             style="font-style:normal;font-variant:normal;font-weight:normal;font-stretch:normal;font-size:85.33333588px;font-family:'Andale Mono';-inkscape-font-specification:'Andale Mono';text-align:center;text-anchor:middle"
             y="150.75293"
             x="153.54318"
             height="290.92395"
             width="664.68042"
             id="rect823-2" /></flowRegion><flowPara
           style="font-style:normal;font-variant:normal;font-weight:normal;font-stretch:normal;font-size:96px;font-family:'Andale Mono';-inkscape-font-specification:'Andale Mono';text-align:center;text-anchor:middle;fill:#ffff00"
           id="flowPara825-9">Title of this book</flowPara></flowRoot>    </g>
  </g>
</svg>
